<svg xmlns="http://www.w3.org/2000/svg" viewBox="0 0 400 500" fill="none">
  <defs>
    <linearGradient id="bg-luka" x1="0" y1="0" x2="0" y2="1">
      <stop offset="0%" stop-color="#60a5fa" stop-opacity="0.25"/>
      <stop offset="100%" stop-color="#0f172a"/>
    </linearGradient>
  </defs>
  <rect width="400" height="500" fill="url(#bg-luka)"/>
  <ellipse cx="200" cy="430" rx="120" ry="40" fill="#000" opacity="0.15"/>
  <path d="M100 480c20-80 60-120 100-120s80 40 100 120H100z" fill="#3b82f6"/>
  <path d="M130 200c0-55 30-95 70-95s70 40 70 95c0 30-10 55-25 70H155c-15-15-25-40-25-70z" fill="#1e1e1e"/>
  <ellipse cx="200" cy="220" rx="72" ry="82" fill="#e8c4a8"/>
  <ellipse cx="168" cy="210" rx="10" ry="12" fill="#1e293b"/>
  <ellipse cx="232" cy="210" rx="10" ry="12" fill="#1e293b"/>
  <path d="M185 250q15 12 30 0" stroke="#c4a484" stroke-width="3" fill="none" stroke-linecap="round"/>
  <path d="M155 175c15-20 75-20 90 0" stroke="#1e1e1e" stroke-width="8" fill="none" stroke-linecap="round"/>
</svg>